<?xml version="1.0" standalone="no"?>
<!DOCTYPE svg PUBLIC "-//W3C//DTD SVG 20010904//EN"
 "http://www.w3.org/TR/2001/REC-SVG-20010904/DTD/svg10.dtd">
<svg version="1.0" xmlns="http://www.w3.org/2000/svg"
 width="300.000000pt" height="300.000000pt" viewBox="0 0 300.000000 300.000000"
 preserveAspectRatio="xMidYMid meet">
<metadata>
Created by potrace 1.11, written by Peter Selinger 2001-2013
</metadata>
<g transform="translate(0.000000,300.000000) scale(0.100000,-0.100000)"
fill="#000000" stroke="none">
<path d="M1275 2986 c-608 -101 -1093 -544 -1233 -1126 -65 -270 -53 -577 33
-837 145 -436 512 -803 948 -948 172 -57 256 -69 477 -69 221 0 305 12 477 69
437 145 803 511 948 948 57 172 69 256 69 477 0 174 -3 220 -21 302 -31 135
-66 236 -123 353 -205 421 -580 714 -1043 816 -119 26 -414 35 -532 15z m45
-1263 c100 -269 186 -491 189 -496 4 -4 91 214 193 485 l186 493 146 3 146 3
0 -731 0 -730 -95 0 -95 0 0 637 c0 350 -2 634 -5 631 -3 -3 -88 -225 -190
-494 l-183 -489 -99 -3 -98 -2 -185 494 -185 494 -3 -634 -2 -634 -95 0 -95 0
0 730 0 730 144 0 143 0 183 -487z"/>
</g>
</svg>
